<svg xmlns="http://www.w3.org/2000/svg" xmlns:xlink="http://www.w3.org/1999/xlink" contentStyleType="text/css" height="1373px" preserveAspectRatio="none" style="width:555px;height:1373px;background:#FFFFFF;" version="1.1" viewBox="0 0 555 1373" width="555px" zoomAndPan="magnify"><title>&#22270; 3-7  &#26234;&#33021;&#36873;&#21697;&#25512;&#33616;&#27963;&#21160;&#22270;</title><defs/><g><text fill="#000000" font-family="Microsoft YaHei" font-size="14" font-weight="bold" lengthAdjust="spacing" textLength="175.8887" x="188.0557" y="34.8135">&#22270; 3-7  &#26234;&#33021;&#36873;&#21697;&#25512;&#33616;&#27963;&#21160;&#22270;</text><ellipse cx="277.5" cy="59.4775" fill="#222222" rx="10" ry="10" style="stroke:#222222;stroke-width:1;"/><rect fill="#FFFFFF" height="37.1577" style="stroke:#181818;stroke-width:0.5;" width="249.6836" x="152.6582" y="89.4775"/><text fill="#000000" font-family="Microsoft YaHei" font-size="13" lengthAdjust="spacing" textLength="229.6836" x="162.6582" y="113.2329">&#25509;&#25910;&#25512;&#33616;&#35831;&#27714;(&#29992;&#25143;&#12289;&#22330;&#26223;&#12289;&#39029;&#38754;&#19978;&#19979;&#25991;)</text><rect fill="none" height="264.6309" style="stroke:#000000;stroke-width:1.5;" width="321" x="120.25" y="136.6353"/><path d="M182.25,136.6353 L182.25,146.793 L172.25,156.793 L120.25,156.793 " fill="none" style="stroke:#000000;stroke-width:1.5;"/><text fill="#000000" font-family="Microsoft YaHei" font-size="13" lengthAdjust="spacing" textLength="52" x="123.25" y="151.3906">&#30011;&#20687;&#26500;&#24314;</text><rect fill="#FFFFFF" height="37.1577" style="stroke:#181818;stroke-width:0.5;" width="234.792" x="160.104" y="173.793"/><text fill="#000000" font-family="Microsoft YaHei" font-size="13" lengthAdjust="spacing" textLength="214.792" x="170.104" y="197.5483">&#35013;&#36733;&#38271;&#26399;&#30011;&#20687;(&#20559;&#22909;&#21697;&#31867;/&#21697;&#29260;/&#20215;&#26684;&#24102;)</text><rect fill="#FFFFFF" height="37.1577" style="stroke:#181818;stroke-width:0.5;" width="124" x="215.5" y="230.9507"/><text fill="#000000" font-family="Microsoft YaHei" font-size="13" lengthAdjust="spacing" textLength="104" x="225.5" y="254.7061">&#34701;&#21512;&#23454;&#26102;&#34892;&#20026;&#24207;&#21015;</text><polygon fill="#FFFFFF" points="235.3611,288.1084,319.6389,288.1084,331.6389,300.1084,319.6389,312.1084,235.3611,312.1084,223.3611,300.1084,235.3611,288.1084" style="stroke:#181818;stroke-width:0.5;"/><text fill="#000000" font-family="Microsoft YaHei" font-size="13" lengthAdjust="spacing" textLength="84.2778" x="235.3611" y="305.2849">&#30011;&#20687;&#26159;&#21542;&#20805;&#20998;?</text><text fill="#000000" font-family="Microsoft YaHei" font-size="13" lengthAdjust="spacing" textLength="13" x="210.3611" y="296.7061">&#21542;</text><text fill="#000000" font-family="Microsoft YaHei" font-size="13" lengthAdjust="spacing" textLength="13" x="331.6389" y="296.7061">&#26159;</text><rect fill="#FFFFFF" height="37.1577" style="stroke:#181818;stroke-width:0.5;" width="124" x="140.25" y="322.1084"/><text fill="#000000" font-family="Microsoft YaHei" font-size="13" lengthAdjust="spacing" textLength="104" x="150.25" y="345.8638">&#26631;&#35760;&#20026;&#20919;&#21551;&#21160;&#29992;&#25143;</text><rect fill="#FFFFFF" height="37.1577" style="stroke:#181818;stroke-width:0.5;" width="137" x="284.25" y="322.1084"/><text fill="#000000" font-family="Microsoft YaHei" font-size="13" lengthAdjust="spacing" textLength="117" x="294.25" y="345.8638">&#36755;&#20986;&#20010;&#24615;&#21270;&#30011;&#20687;&#21521;&#37327;</text><polygon fill="#FFFFFF" points="277.5,365.2661,289.5,377.2661,277.5,389.2661,265.5,377.2661,277.5,365.2661" style="stroke:#181818;stroke-width:0.5;"/><rect fill="none" height="195.4731" style="stroke:#000000;stroke-width:1.5;" width="533" x="11" y="411.2661"/><path d="M73,411.2661 L73,421.4238 L63,431.4238 L11,431.4238 " fill="none" style="stroke:#000000;stroke-width:1.5;"/><text fill="#000000" font-family="Microsoft YaHei" font-size="13" lengthAdjust="spacing" textLength="52" x="14" y="426.0215">&#22810;&#36335;&#21484;&#22238;</text><rect fill="#555555" height="6" rx="2.5" ry="2.5" style="stroke:#555555;stroke-width:1;" width="513" x="21" y="448.4238"/><rect fill="#FFFFFF" height="37.1577" style="stroke:#181818;stroke-width:0.5;" width="98" x="33" y="474.4238"/><text fill="#000000" font-family="Microsoft YaHei" font-size="13" lengthAdjust="spacing" textLength="78" x="43" y="498.1792">&#21327;&#21516;&#36807;&#28388;&#21484;&#22238;</text><rect fill="#FFFFFF" height="37.1577" style="stroke:#181818;stroke-width:0.5;" width="98" x="159" y="474.4238"/><text fill="#000000" font-family="Microsoft YaHei" font-size="13" lengthAdjust="spacing" textLength="78" x="169" y="498.1792">&#21521;&#37327;&#35821;&#20041;&#21484;&#22238;</text><rect fill="#FFFFFF" height="37.1577" style="stroke:#181818;stroke-width:0.5;" width="111" x="285" y="474.4238"/><text fill="#000000" font-family="Microsoft YaHei" font-size="13" lengthAdjust="spacing" textLength="91" x="295" y="498.1792">&#28909;&#38376;&#19982;&#26032;&#21697;&#21484;&#22238;</text><rect fill="#FFFFFF" height="37.1577" style="stroke:#181818;stroke-width:0.5;" width="98" x="424" y="474.4238"/><text fill="#000000" font-family="Microsoft YaHei" font-size="13" lengthAdjust="spacing" textLength="78" x="434" y="498.1792">&#22270;&#25991;&#25628;&#32034;&#21484;&#22238;</text><rect fill="#555555" height="6" rx="2.5" ry="2.5" style="stroke:#555555;stroke-width:1;" width="513" x="21" y="531.5815"/><rect fill="#FFFFFF" height="37.1577" style="stroke:#181818;stroke-width:0.5;" width="137" x="209" y="557.5815"/><text fill="#000000" font-family="Microsoft YaHei" font-size="13" lengthAdjust="spacing" textLength="117" x="219" y="581.3369">&#21512;&#24182;&#21435;&#37325;&#24471;&#21040;&#20505;&#36873;&#38598;</text><rect fill="none" height="257.7886" style="stroke:#000000;stroke-width:1.5;" width="260.3462" x="147.3269" y="616.7393"/><path d="M222.3269,616.7393 L222.3269,626.897 L212.3269,636.897 L147.3269,636.897 " fill="none" style="stroke:#000000;stroke-width:1.5;"/><text fill="#000000" font-family="Microsoft YaHei" font-size="13" lengthAdjust="spacing" textLength="65" x="150.3269" y="631.4946">&#25490;&#24207;&#19982;&#37325;&#25490;</text><rect fill="#FFFFFF" height="37.1577" style="stroke:#181818;stroke-width:0.5;" width="234.792" x="160.104" y="653.897"/><text fill="#000000" font-family="Microsoft YaHei" font-size="13" lengthAdjust="spacing" textLength="214.792" x="170.104" y="677.6523">&#29305;&#24449;&#24037;&#31243;(&#29992;&#25143;/&#21830;&#21697;/&#19978;&#19979;&#25991;&#20132;&#21449;&#29305;&#24449;)</text><rect fill="#FFFFFF" height="37.1577" style="stroke:#181818;stroke-width:0.5;" width="98" x="228.5" y="711.0547"/><text fill="#000000" font-family="Microsoft YaHei" font-size="13" lengthAdjust="spacing" textLength="78" x="238.5" y="734.8101">&#31934;&#25490;&#27169;&#22411;&#25171;&#20998;</text><rect fill="#FFFFFF" height="37.1577" style="stroke:#181818;stroke-width:0.5;" width="240.3462" x="157.3269" y="768.2124"/><text fill="#000000" font-family="Microsoft YaHei" font-size="13" lengthAdjust="spacing" textLength="220.3462" x="167.3269" y="791.9678">&#19994;&#21153;&#35268;&#21017;&#36807;&#28388;(&#19979;&#26550;/&#26080;&#24211;&#23384;/&#21512;&#35268;/&#38480;&#36141;)</text><rect fill="#FFFFFF" height="37.1577" style="stroke:#181818;stroke-width:0.5;" width="210.6836" x="172.1582" y="825.3701"/><text fill="#000000" font-family="Microsoft YaHei" font-size="13" lengthAdjust="spacing" textLength="190.6836" x="182.1582" y="849.1255">&#22810;&#26679;&#24615;&#37325;&#25490;(&#21697;&#31867;&#25171;&#25955;&#12289;&#38450;&#21516;&#36136;&#21270;)</text><polygon fill="#FFFFFF" points="209.3611,894.5278,345.6389,894.5278,357.6389,906.5278,345.6389,918.5278,209.3611,918.5278,197.3611,906.5278,209.3611,894.5278" style="stroke:#181818;stroke-width:0.5;"/><text fill="#000000" font-family="Microsoft YaHei" font-size="13" lengthAdjust="spacing" textLength="136.2778" x="209.3611" y="911.7043">&#32467;&#26524;&#26465;&#25968;&#26159;&#21542;&#36798;&#21040;&#38408;&#20540;?</text><text fill="#000000" font-family="Microsoft YaHei" font-size="13" lengthAdjust="spacing" textLength="13" x="184.3611" y="903.1255">&#21542;</text><text fill="#000000" font-family="Microsoft YaHei" font-size="13" lengthAdjust="spacing" textLength="13" x="357.6389" y="903.1255">&#26159;</text><rect fill="#FFFFFF" height="37.1577" style="stroke:#181818;stroke-width:0.5;" width="189.2476" x="90.4939" y="928.5278"/><text fill="#000000" font-family="Microsoft YaHei" font-size="13" lengthAdjust="spacing" textLength="169.2476" x="100.4939" y="952.2832">&#21551;&#29992;&#28909;&#38376; / &#26032;&#23458;&#19987;&#20139;&#20828;&#24213;&#21015;&#34920;</text><rect fill="#FFFFFF" height="37.1577" style="stroke:#181818;stroke-width:0.5;" width="140.2817" x="299.7415" y="928.5278"/><text fill="#000000" font-family="Microsoft YaHei" font-size="13" lengthAdjust="spacing" textLength="120.2817" x="309.7415" y="952.2832">&#36755;&#20986; TopN &#25512;&#33616;&#32467;&#26524;</text><polygon fill="#FFFFFF" points="277.5,971.6855,289.5,983.6855,277.5,995.6855,265.5,983.6855,277.5,971.6855" style="stroke:#181818;stroke-width:0.5;"/><rect fill="#FFFFFF" height="37.1577" style="stroke:#181818;stroke-width:0.5;" width="163" x="196" y="1015.6855"/><text fill="#000000" font-family="Microsoft YaHei" font-size="13" lengthAdjust="spacing" textLength="143" x="206" y="1039.4409">&#36820;&#22238;&#25512;&#33616;&#21015;&#34920;&#19982;&#25512;&#33616;&#29702;&#30001;</text><rect fill="#FFFFFF" height="37.1577" style="stroke:#181818;stroke-width:0.5;" width="98" x="228.5" y="1072.8433"/><text fill="#000000" font-family="Microsoft YaHei" font-size="13" lengthAdjust="spacing" textLength="78" x="238.5" y="1096.5986">&#35760;&#24405;&#26333;&#20809;&#22475;&#28857;</text><rect fill="none" height="200.6309" style="stroke:#000000;stroke-width:1.5;" width="196.4951" x="179.2524" y="1120.001"/><path d="M241.2524,1120.001 L241.2524,1130.1587 L231.2524,1140.1587 L179.2524,1140.1587 " fill="none" style="stroke:#000000;stroke-width:1.5;"/><text fill="#000000" font-family="Microsoft YaHei" font-size="13" lengthAdjust="spacing" textLength="52" x="182.2524" y="1134.7563">&#38381;&#29615;&#21453;&#39304;</text><rect fill="#FFFFFF" height="37.1577" style="stroke:#181818;stroke-width:0.5;" width="176.4951" x="189.2524" y="1157.1587"/><text fill="#000000" font-family="Microsoft YaHei" font-size="13" lengthAdjust="spacing" textLength="156.4951" x="199.2524" y="1180.9141">&#37319;&#38598;&#28857;&#20987; / &#21152;&#36141; / &#25104;&#20132;&#34892;&#20026;</text><rect fill="#FFFFFF" height="37.1577" style="stroke:#181818;stroke-width:0.5;" width="98" x="228.5" y="1214.3164"/><text fill="#000000" font-family="Microsoft YaHei" font-size="13" lengthAdjust="spacing" textLength="78" x="238.5" y="1238.0718">&#22238;&#27969;&#33267;&#26679;&#26412;&#24211;</text><rect fill="#FFFFFF" height="37.1577" style="stroke:#181818;stroke-width:0.5;" width="176" x="189.5" y="1271.4741"/><text fill="#000000" font-family="Microsoft YaHei" font-size="13" lengthAdjust="spacing" textLength="156" x="199.5" y="1295.2295">&#21608;&#26399;&#24615;&#26356;&#26032;&#30011;&#20687;&#19982;&#25490;&#24207;&#27169;&#22411;</text><ellipse cx="277.5" cy="1351.6318" fill="none" rx="11" ry="11" style="stroke:#222222;stroke-width:1;"/><ellipse cx="277.5" cy="1351.6318" fill="#222222" rx="6" ry="6" style="stroke:#222222;stroke-width:1;"/><line style="stroke:#000000;stroke-width:0.8;" x1="277.5" x2="277.5" y1="69.4775" y2="89.4775"/><polygon fill="#000000" points="273.5,79.4775,277.5,89.4775,281.5,79.4775,277.5,83.4775" style="stroke:#000000;stroke-width:1;"/><line style="stroke:#000000;stroke-width:0.8;" x1="277.5" x2="277.5" y1="210.9507" y2="230.9507"/><polygon fill="#000000" points="273.5,220.9507,277.5,230.9507,281.5,220.9507,277.5,224.9507" style="stroke:#000000;stroke-width:1;"/><line style="stroke:#000000;stroke-width:0.8;" x1="223.3611" x2="202.25" y1="300.1084" y2="300.1084"/><line style="stroke:#000000;stroke-width:0.8;" x1="202.25" x2="202.25" y1="300.1084" y2="322.1084"/><polygon fill="#000000" points="198.25,312.1084,202.25,322.1084,206.25,312.1084,202.25,316.1084" style="stroke:#000000;stroke-width:1;"/><line style="stroke:#000000;stroke-width:0.8;" x1="331.6389" x2="352.75" y1="300.1084" y2="300.1084"/><line style="stroke:#000000;stroke-width:0.8;" x1="352.75" x2="352.75" y1="300.1084" y2="322.1084"/><polygon fill="#000000" points="348.75,312.1084,352.75,322.1084,356.75,312.1084,352.75,316.1084" style="stroke:#000000;stroke-width:1;"/><line style="stroke:#000000;stroke-width:0.8;" x1="202.25" x2="202.25" y1="359.2661" y2="377.2661"/><line style="stroke:#000000;stroke-width:0.8;" x1="202.25" x2="265.5" y1="377.2661" y2="377.2661"/><polygon fill="#000000" points="255.5,373.2661,265.5,377.2661,255.5,381.2661,259.5,377.2661" style="stroke:#000000;stroke-width:1;"/><line style="stroke:#000000;stroke-width:0.8;" x1="352.75" x2="352.75" y1="359.2661" y2="377.2661"/><line style="stroke:#000000;stroke-width:0.8;" x1="352.75" x2="289.5" y1="377.2661" y2="377.2661"/><polygon fill="#000000" points="299.5,373.2661,289.5,377.2661,299.5,381.2661,295.5,377.2661" style="stroke:#000000;stroke-width:1;"/><line style="stroke:#000000;stroke-width:0.8;" x1="277.5" x2="277.5" y1="268.1084" y2="288.1084"/><polygon fill="#000000" points="273.5,278.1084,277.5,288.1084,281.5,278.1084,277.5,282.1084" style="stroke:#000000;stroke-width:1;"/><line style="stroke:#000000;stroke-width:0.8;" x1="277.5" x2="277.5" y1="126.6353" y2="173.793"/><polygon fill="#000000" points="273.5,163.793,277.5,173.793,281.5,163.793,277.5,167.793" style="stroke:#000000;stroke-width:1;"/><line style="stroke:#000000;stroke-width:0.8;" x1="82" x2="82" y1="454.4238" y2="474.4238"/><polygon fill="#000000" points="78,464.4238,82,474.4238,86,464.4238,82,468.4238" style="stroke:#000000;stroke-width:1;"/><line style="stroke:#000000;stroke-width:0.8;" x1="208" x2="208" y1="454.4238" y2="474.4238"/><polygon fill="#000000" points="204,464.4238,208,474.4238,212,464.4238,208,468.4238" style="stroke:#000000;stroke-width:1;"/><line style="stroke:#000000;stroke-width:0.8;" x1="340.5" x2="340.5" y1="454.4238" y2="474.4238"/><polygon fill="#000000" points="336.5,464.4238,340.5,474.4238,344.5,464.4238,340.5,468.4238" style="stroke:#000000;stroke-width:1;"/><line style="stroke:#000000;stroke-width:0.8;" x1="473" x2="473" y1="454.4238" y2="474.4238"/><polygon fill="#000000" points="469,464.4238,473,474.4238,477,464.4238,473,468.4238" style="stroke:#000000;stroke-width:1;"/><line style="stroke:#000000;stroke-width:0.8;" x1="82" x2="82" y1="511.5815" y2="531.5815"/><polygon fill="#000000" points="78,521.5815,82,531.5815,86,521.5815,82,525.5815" style="stroke:#000000;stroke-width:1;"/><line style="stroke:#000000;stroke-width:0.8;" x1="208" x2="208" y1="511.5815" y2="531.5815"/><polygon fill="#000000" points="204,521.5815,208,531.5815,212,521.5815,208,525.5815" style="stroke:#000000;stroke-width:1;"/><line style="stroke:#000000;stroke-width:0.8;" x1="340.5" x2="340.5" y1="511.5815" y2="531.5815"/><polygon fill="#000000" points="336.5,521.5815,340.5,531.5815,344.5,521.5815,340.5,525.5815" style="stroke:#000000;stroke-width:1;"/><line style="stroke:#000000;stroke-width:0.8;" x1="473" x2="473" y1="511.5815" y2="531.5815"/><polygon fill="#000000" points="469,521.5815,473,531.5815,477,521.5815,473,525.5815" style="stroke:#000000;stroke-width:1;"/><line style="stroke:#000000;stroke-width:0.8;" x1="277.5" x2="277.5" y1="537.5815" y2="557.5815"/><polygon fill="#000000" points="273.5,547.5815,277.5,557.5815,281.5,547.5815,277.5,551.5815" style="stroke:#000000;stroke-width:1;"/><line style="stroke:#000000;stroke-width:0.8;" x1="277.5" x2="277.5" y1="389.2661" y2="448.4238"/><polygon fill="#000000" points="273.5,438.4238,277.5,448.4238,281.5,438.4238,277.5,442.4238" style="stroke:#000000;stroke-width:1;"/><line style="stroke:#000000;stroke-width:0.8;" x1="277.5" x2="277.5" y1="691.0547" y2="711.0547"/><polygon fill="#000000" points="273.5,701.0547,277.5,711.0547,281.5,701.0547,277.5,705.0547" style="stroke:#000000;stroke-width:1;"/><line style="stroke:#000000;stroke-width:0.8;" x1="277.5" x2="277.5" y1="748.2124" y2="768.2124"/><polygon fill="#000000" points="273.5,758.2124,277.5,768.2124,281.5,758.2124,277.5,762.2124" style="stroke:#000000;stroke-width:1;"/><line style="stroke:#000000;stroke-width:0.8;" x1="277.5" x2="277.5" y1="805.3701" y2="825.3701"/><polygon fill="#000000" points="273.5,815.3701,277.5,825.3701,281.5,815.3701,277.5,819.3701" style="stroke:#000000;stroke-width:1;"/><line style="stroke:#000000;stroke-width:0.8;" x1="277.5" x2="277.5" y1="594.7393" y2="653.897"/><polygon fill="#000000" points="273.5,643.897,277.5,653.897,281.5,643.897,277.5,647.897" style="stroke:#000000;stroke-width:1;"/><line style="stroke:#000000;stroke-width:0.8;" x1="197.3611" x2="185.1177" y1="906.5278" y2="906.5278"/><line style="stroke:#000000;stroke-width:0.8;" x1="185.1177" x2="185.1177" y1="906.5278" y2="928.5278"/><polygon fill="#000000" points="181.1177,918.5278,185.1177,928.5278,189.1177,918.5278,185.1177,922.5278" style="stroke:#000000;stroke-width:1;"/><line style="stroke:#000000;stroke-width:0.8;" x1="357.6389" x2="369.8823" y1="906.5278" y2="906.5278"/><line style="stroke:#000000;stroke-width:0.8;" x1="369.8823" x2="369.8823" y1="906.5278" y2="928.5278"/><polygon fill="#000000" points="365.8823,918.5278,369.8823,928.5278,373.8823,918.5278,369.8823,922.5278" style="stroke:#000000;stroke-width:1;"/><line style="stroke:#000000;stroke-width:0.8;" x1="185.1177" x2="185.1177" y1="965.6855" y2="983.6855"/><line style="stroke:#000000;stroke-width:0.8;" x1="185.1177" x2="265.5" y1="983.6855" y2="983.6855"/><polygon fill="#000000" points="255.5,979.6855,265.5,983.6855,255.5,987.6855,259.5,983.6855" style="stroke:#000000;stroke-width:1;"/><line style="stroke:#000000;stroke-width:0.8;" x1="369.8823" x2="369.8823" y1="965.6855" y2="983.6855"/><line style="stroke:#000000;stroke-width:0.8;" x1="369.8823" x2="289.5" y1="983.6855" y2="983.6855"/><polygon fill="#000000" points="299.5,979.6855,289.5,983.6855,299.5,987.6855,295.5,983.6855" style="stroke:#000000;stroke-width:1;"/><line style="stroke:#000000;stroke-width:0.8;" x1="277.5" x2="277.5" y1="862.5278" y2="894.5278"/><polygon fill="#000000" points="273.5,884.5278,277.5,894.5278,281.5,884.5278,277.5,888.5278" style="stroke:#000000;stroke-width:1;"/><line style="stroke:#000000;stroke-width:0.8;" x1="277.5" x2="277.5" y1="995.6855" y2="1015.6855"/><polygon fill="#000000" points="273.5,1005.6855,277.5,1015.6855,281.5,1005.6855,277.5,1009.6855" style="stroke:#000000;stroke-width:1;"/><line style="stroke:#000000;stroke-width:0.8;" x1="277.5" x2="277.5" y1="1052.8433" y2="1072.8433"/><polygon fill="#000000" points="273.5,1062.8433,277.5,1072.8433,281.5,1062.8433,277.5,1066.8433" style="stroke:#000000;stroke-width:1;"/><line style="stroke:#000000;stroke-width:0.8;" x1="277.5" x2="277.5" y1="1194.3164" y2="1214.3164"/><polygon fill="#000000" points="273.5,1204.3164,277.5,1214.3164,281.5,1204.3164,277.5,1208.3164" style="stroke:#000000;stroke-width:1;"/><line style="stroke:#000000;stroke-width:0.8;" x1="277.5" x2="277.5" y1="1251.4741" y2="1271.4741"/><polygon fill="#000000" points="273.5,1261.4741,277.5,1271.4741,281.5,1261.4741,277.5,1265.4741" style="stroke:#000000;stroke-width:1;"/><line style="stroke:#000000;stroke-width:0.8;" x1="277.5" x2="277.5" y1="1110.001" y2="1157.1587"/><polygon fill="#000000" points="273.5,1147.1587,277.5,1157.1587,281.5,1147.1587,277.5,1151.1587" style="stroke:#000000;stroke-width:1;"/><line style="stroke:#000000;stroke-width:0.8;" x1="277.5" x2="277.5" y1="1308.6318" y2="1340.6318"/><polygon fill="#000000" points="273.5,1330.6318,277.5,1340.6318,281.5,1330.6318,277.5,1334.6318" style="stroke:#000000;stroke-width:1;"/><!--SRC=[hLPRSzD667tthzX97t0U7DDIfapIomGeBJD0cI4yz74ZhnqHHtAbJO1sEkCG4jkvE4vjvqACam01JqlY44BiI8dpNrhjIdhYB_IJrb270UnfgvbCvDspH-SxtrcjJg6l_liLE8KGNp7SPCOo5b3_PMGNNh7Y52jLREEO5RQTlMVsIzCsrr2m_tBesmlNkn7wCrb0wERLAuYjDhYHuuifozptYDp7MRv- -FhmWLNVX1iVyrdF7HH6eoFnK4J6CGsFw3sg5aDi_fwJd7Yp8EsQ2_RA4PihEfdTruSPNrLzbw_bWUmM7iCeT0jhA1772WMg7kz7I1h2cauekZbmANGEXQW-5aDVyj9peUThuFW__D67PIM1GJSQKHLL6jBK4OAeDafQPWQnD1pJr54bSa6Dgnhwv99_jI0Y98f7u_IIgj1h60YwhigIfkfgbA8VyVT4xde_zeRyCq6VdccPr8TmHBqjAp4KnN6zLOGKnxhUJwac3uvISbbI5N_rwHP8KwAc4Et4kA96Y4uIwFEphM2i37k3Pri74r0fZf4Rz6wS88r852knUAiAdVmqIXI9N2Mw3i3-k1nJa4GKIhGMLBz4LUryMzS4JDKYH6j2JljN2-GwrgWioGa8Hdk-Ll17MQ-fbBIdyr4VvRdHTECxu4cq9pm9xuZvl7gdSruFtCPDlxtj6IzuOMiF-s7m5cIa0u4KTsBuJPr8MEz4dZgIK1NIIIOWO_AOJEzsZhmeOtWLH3h9HwG3hHSnnOCTLTMlQUhj3xNEdnmOagLX1ROUEjrphlKPufKoGExGTe6w8aVXJ-ams6_H7MVGTn5JMLN-rPgELBt7A2fJU6F1WONEXBxmZpnduWXEFPOVvzcACvVZUoQRhW0W4D0fl2S2WLwUtUI5VJ7jL6lynRsWNQZmTEslv3Wh6Nob2ZVknYltuIEhFctLP-3awUuB11BUQyPJYxhiWiacvddvFZEDBlHB0A5Uv_6aStJa5ezvQKrC1zduFDiy0Yds2pFi_SlCXYsp1aSZgpy5HczLUOxbqcoxp9VsdOrPgsumOvwbbxn9EOg2pGSjLrdkAPkSPEcfRxeH7I8A2i98Dw20XA-ddEqTR-rKZUMgKA-enoCXS9gW810qiKuZprA6LV-T9v-nsKN1pt8BRchUXoiHEHhuzKInxCa3frPbyy_PQbaK6rMrOK77vc3nh7ESukOJWUXhpYCSmxBIHFdyJdNBEiXy66LFRBbB5QkUvOixuDP7wE3xP375SoLxxz4_A93-HbYlv-d1FikQRcgEDPPOUeSbLo0MxkfKtplLyUnlO3ay5Q1mt-ocdJbWZN5MsxGhCyrqXBtlf_nu-6qcB0DApWYawAQzsm0ANjbWvHcUoKEt_66h_e1DRpZFxhFqYh0gw36KzyDyQPqPURQr70R500YxApbdRqkmWUzylGPz4ig28aZ0oukFlOGkxthMxrMWZTr-LNvWp3mlb_Z33LxS4R5n6WsetrrEi-JXk-41ewfGdN0UlkSyvxSXzNdB-8DDbfXHX2mw6vM-m8aSDLE41jJ4DIGsadWkuFm01NgTumBqHSm93g-n0fgRiWil-W2plSEEYdpr8PlCiBKP-zx1oLtcBctPMGZUdFiqtUoBcqf13m79KYRePTFhO9SdF9s3TeWT9Co3XxyQTr8lFGjBpy5bCRnGWVq9dlBLFIXMnDzNvgL0TCxtKgTgucy0]--></g></svg>