<svg xmlns="http://www.w3.org/2000/svg" xmlns:xlink="http://www.w3.org/1999/xlink" contentStyleType="text/css" height="1294px" preserveAspectRatio="none" style="width:694px;height:1294px;background:#FFFFFF;" version="1.1" viewBox="0 0 694 1294" width="694px" zoomAndPan="magnify"><title>&#22270; 4-7  &#35746;&#21333;&#29366;&#24577;&#22270;</title><defs/><g><text fill="#000000" font-family="Microsoft YaHei" font-size="14" font-weight="bold" lengthAdjust="spacing" textLength="119.8887" x="280.0708" y="24.8135">&#22270; 4-7  &#35746;&#21333;&#29366;&#24577;&#22270;</text><rect fill="#FFFFFF" height="27.1577" style="stroke:#FFFFFF;stroke-width:1;" width="117.5" x="142" y="265.4775"/><rect fill="none" height="319.1577" style="stroke:#181818;stroke-width:0.5;" width="117.5" x="142" y="265.4775"/><line style="stroke:#181818;stroke-width:0.5;" x1="142" x2="259.5" y1="292.6353" y2="292.6353"/><text fill="#000000" font-family="Microsoft YaHei" font-size="13" lengthAdjust="spacing" textLength="39" x="181.25" y="284.2329">&#24050;&#25903;&#20184;</text><ellipse cx="183.5" cy="313.6353" fill="#222222" rx="10" ry="10" style="stroke:#222222;stroke-width:1;"/><g id="&#24050;&#25903;&#20184;.&#24453;&#20998;&#21333;"><rect fill="#FFFFFF" height="50" style="stroke:#181818;stroke-width:0.5;" width="59" x="154" y="360.6353"/><line style="stroke:#181818;stroke-width:0.5;" x1="154" x2="213" y1="387.793" y2="387.793"/><text fill="#000000" font-family="Microsoft YaHei" font-size="13" lengthAdjust="spacing" textLength="39" x="164" y="379.3906">&#24453;&#20998;&#21333;</text></g><g id="&#24050;&#25903;&#20184;.&#24050;&#20998;&#21333;"><rect fill="#FFFFFF" height="50" style="stroke:#181818;stroke-width:0.5;" width="59" x="154" y="465.6353"/><line style="stroke:#181818;stroke-width:0.5;" x1="154" x2="213" y1="492.793" y2="492.793"/><text fill="#000000" font-family="Microsoft YaHei" font-size="13" lengthAdjust="spacing" textLength="39" x="164" y="484.3906">&#24050;&#20998;&#21333;</text></g><ellipse cx="183.5" cy="563.6353" fill="none" rx="11" ry="11" style="stroke:#222222;stroke-width:1;"/><ellipse cx="183.5" cy="563.6353" fill="#222222" rx="6" ry="6" style="stroke:#222222;stroke-width:1;"/><!--link *start*??? to ???--><g id="link_*start*&#24050;&#25903;&#20184;_&#24453;&#20998;&#21333;"><path d="M183.5,323.7853 C183.5,333.0553 183.5,341.7753 183.5,354.4153 " fill="none" id="*start*&#24050;&#25903;&#20184;-to-&#24453;&#20998;&#21333;" style="stroke:#000000;stroke-width:0.8;"/><polygon fill="#000000" points="183.5,360.4153,187.5,351.4153,183.5,355.4153,179.5,351.4153,183.5,360.4153" style="stroke:#000000;stroke-width:0.8;"/></g><!--link ??? to ???--><g id="link_&#24453;&#20998;&#21333;_&#24050;&#20998;&#21333;"><path d="M183.5,410.7853 C183.5,427.1953 183.5,442.8253 183.5,459.2853 " fill="none" id="&#24453;&#20998;&#21333;-to-&#24050;&#20998;&#21333;" style="stroke:#000000;stroke-width:0.8;"/><polygon fill="#000000" points="183.5,465.2853,187.5,456.2853,183.5,460.2853,179.5,456.2853,183.5,465.2853" style="stroke:#000000;stroke-width:0.8;"/><text fill="#000000" font-family="Microsoft YaHei" font-size="13" lengthAdjust="spacing" textLength="65" x="184.5" y="443.3906">&#20998;&#37197;&#21457;&#36135;&#20179;</text></g><!--link ??? to *end*???--><g id="link_&#24050;&#20998;&#21333;_*end*&#24050;&#25903;&#20184;"><path d="M183.5,515.6753 C183.5,528.2253 183.5,536.9153 183.5,546.4853 " fill="none" id="&#24050;&#20998;&#21333;-to-*end*&#24050;&#25903;&#20184;" style="stroke:#000000;stroke-width:0.8;"/><polygon fill="#000000" points="183.5,552.4853,187.5,543.4853,183.5,547.4853,179.5,543.4853,183.5,552.4853" style="stroke:#000000;stroke-width:0.8;"/></g><ellipse cx="493.5" cy="55.4775" fill="#222222" rx="10" ry="10" style="stroke:#222222;stroke-width:1;"/><g id="&#24453;&#25903;&#20184;"><rect fill="#FFFFFF" height="50" style="stroke:#181818;stroke-width:0.5;" width="59" x="464" y="140.4775"/><line style="stroke:#181818;stroke-width:0.5;" x1="464" x2="523" y1="167.6353" y2="167.6353"/><text fill="#000000" font-family="Microsoft YaHei" font-size="13" lengthAdjust="spacing" textLength="39" x="474" y="159.2329">&#24453;&#25903;&#20184;</text></g><g id="&#24050;&#20851;&#38381;"><rect fill="#FFFFFF" height="50" style="stroke:#181818;stroke-width:0.5;" width="59" x="563" y="399.9775"/><line style="stroke:#181818;stroke-width:0.5;" x1="563" x2="622" y1="427.1353" y2="427.1353"/><text fill="#000000" font-family="Microsoft YaHei" font-size="13" lengthAdjust="spacing" textLength="39" x="573" y="418.7329">&#24050;&#20851;&#38381;</text></g><g id="&#24453;&#21457;&#36135;"><rect fill="#FFFFFF" height="50" style="stroke:#181818;stroke-width:0.5;" width="59" x="196" y="659.4775"/><line style="stroke:#181818;stroke-width:0.5;" x1="196" x2="255" y1="686.6353" y2="686.6353"/><text fill="#000000" font-family="Microsoft YaHei" font-size="13" lengthAdjust="spacing" textLength="39" x="206" y="678.2329">&#24453;&#21457;&#36135;</text></g><g id="&#36864;&#27454;&#20013;"><rect fill="#FFFFFF" height="50" style="stroke:#181818;stroke-width:0.5;" width="59" x="65" y="784.4775"/><line style="stroke:#181818;stroke-width:0.5;" x1="65" x2="124" y1="811.6353" y2="811.6353"/><text fill="#000000" font-family="Microsoft YaHei" font-size="13" lengthAdjust="spacing" textLength="39" x="75" y="803.2329">&#36864;&#27454;&#20013;</text></g><g id="&#24050;&#21457;&#36135;"><rect fill="#FFFFFF" height="50" style="stroke:#181818;stroke-width:0.5;" width="59" x="209" y="909.4775"/><line style="stroke:#181818;stroke-width:0.5;" x1="209" x2="268" y1="936.6353" y2="936.6353"/><text fill="#000000" font-family="Microsoft YaHei" font-size="13" lengthAdjust="spacing" textLength="39" x="219" y="928.2329">&#24050;&#21457;&#36135;</text></g><g id="&#24050;&#23436;&#25104;"><rect fill="#FFFFFF" height="50" style="stroke:#181818;stroke-width:0.5;" width="59" x="219" y="1159.4775"/><line style="stroke:#181818;stroke-width:0.5;" x1="219" x2="278" y1="1186.6353" y2="1186.6353"/><text fill="#000000" font-family="Microsoft YaHei" font-size="13" lengthAdjust="spacing" textLength="39" x="229" y="1178.2329">&#24050;&#23436;&#25104;</text></g><g id="&#21806;&#21518;&#20013;"><rect fill="#FFFFFF" height="50" style="stroke:#181818;stroke-width:0.5;" width="59" x="99" y="1034.4775"/><line style="stroke:#181818;stroke-width:0.5;" x1="99" x2="158" y1="1061.6353" y2="1061.6353"/><text fill="#000000" font-family="Microsoft YaHei" font-size="13" lengthAdjust="spacing" textLength="39" x="109" y="1053.2329">&#21806;&#21518;&#20013;</text></g><g id="&#24050;&#36864;&#27454;"><rect fill="#FFFFFF" height="50" style="stroke:#181818;stroke-width:0.5;" width="59" x="7" y="1159.4775"/><line style="stroke:#181818;stroke-width:0.5;" x1="7" x2="66" y1="1186.6353" y2="1186.6353"/><text fill="#000000" font-family="Microsoft YaHei" font-size="13" lengthAdjust="spacing" textLength="39" x="17" y="1178.2329">&#24050;&#36864;&#27454;</text></g><ellipse cx="248.5" cy="1277.4775" fill="none" rx="11" ry="11" style="stroke:#222222;stroke-width:1;"/><ellipse cx="248.5" cy="1277.4775" fill="#222222" rx="6" ry="6" style="stroke:#222222;stroke-width:1;"/><!--link *start* to ???--><g id="link_*start*_&#24453;&#25903;&#20184;"><path d="M493.5,65.6875 C493.5,82.0075 493.5,110.5175 493.5,134.1075 " fill="none" id="*start*-to-&#24453;&#25903;&#20184;" style="stroke:#000000;stroke-width:0.8;"/><polygon fill="#000000" points="493.5,140.1075,497.5,131.1075,493.5,135.1075,489.5,131.1075,493.5,140.1075" style="stroke:#000000;stroke-width:0.8;"/><text fill="#000000" font-family="Microsoft YaHei" font-size="13" lengthAdjust="spacing" textLength="143.2476" x="494.5" y="108.2329">&#21019;&#24314;&#35746;&#21333;&#25104;&#21151; / &#38145;&#23450;&#24211;&#23384;</text></g><!--link ??? to ???--><g id="link_&#24453;&#25903;&#20184;_&#24050;&#25903;&#20184;"><path d="M463.54,168.1675 C401.51,172.3075 262.17,185.1675 230.5,218.4775 C217.83,231.7975 210.9651,242.305 204.9851,259.655 " fill="none" id="&#24453;&#25903;&#20184;-to-&#24050;&#25903;&#20184;" style="stroke:#000000;stroke-width:0.8;"/><polygon fill="#000000" points="203.03,265.3275,209.7444,258.1222,204.6593,260.6004,202.181,255.5153,203.03,265.3275" style="stroke:#000000;stroke-width:0.8;"/><text fill="#000000" font-family="Microsoft YaHei" font-size="13" lengthAdjust="spacing" textLength="241.2236" x="231.5" y="233.2329">&#25903;&#20184;&#25104;&#21151;&#22238;&#35843; [&#39564;&#31614;&#36890;&#36807; &#19988; &#24130;&#31561;&#26657;&#39564;&#36890;&#36807;]</text></g><!--link ??? to ???--><g id="link_&#24453;&#25903;&#20184;_&#24050;&#20851;&#38381;"><path d="M487.49,190.4875 C484.98,204.4075 483.48,222.1575 487.5,237.4775 C504.18,301.0975 544.3905,361.0972 569.8405,395.0372 " fill="none" id="&#24453;&#25903;&#20184;-to-&#24050;&#20851;&#38381;" style="stroke:#000000;stroke-width:0.8;"/><polygon fill="#000000" points="573.44,399.8375,571.2409,390.2373,570.4404,395.8373,564.8405,395.0367,573.44,399.8375" style="stroke:#000000;stroke-width:0.8;"/><text fill="#000000" font-family="Microsoft YaHei" font-size="13" lengthAdjust="spacing" textLength="52" x="488.5" y="233.2329">&#29992;&#25143;&#21462;&#28040;</text></g><!--link ??? to ???--><g id="link_&#24453;&#25903;&#20184;_&#24050;&#20851;&#38381;"><path d="M523.28,188.6275 C532.65,196.9975 542.19,207.2475 548.5,218.4775 C581.85,277.7875 589.6688,353.7546 591.6188,393.8846 " fill="none" id="&#24453;&#25903;&#20184;-to-&#24050;&#20851;&#38381;-1" style="stroke:#000000;stroke-width:0.8;"/><polygon fill="#000000" points="591.91,399.8775,595.4685,390.694,591.6673,394.8834,587.4779,391.0823,591.91,399.8775" style="stroke:#000000;stroke-width:0.8;"/><text fill="#000000" font-family="Microsoft YaHei" font-size="13" lengthAdjust="spacing" textLength="129.5303" x="556.5" y="233.2329">&#36229;&#26102;&#26410;&#25903;&#20184; (&#23450;&#26102;&#20219;&#21153;)</text></g><!--link ??? to ???--><g id="link_&#24050;&#25903;&#20184;_&#24453;&#21457;&#36135;"><path d="M215.91,584.6575 C218.74,613.8475 220.7784,634.8858 222.5684,653.2658 " fill="none" id="&#24050;&#25903;&#20184;-to-&#24453;&#21457;&#36135;" style="stroke:#000000;stroke-width:0.8;"/><polygon fill="#000000" points="223.15,659.2375,226.2588,649.8922,222.6654,654.2611,218.2965,650.6676,223.15,659.2375" style="stroke:#000000;stroke-width:0.8;"/><text fill="#000000" font-family="Microsoft YaHei" font-size="13" lengthAdjust="spacing" textLength="169.2476" x="220.5" y="627.2329">&#21830;&#23478;&#30830;&#35748;&#21457;&#36135; / &#33258;&#21160;&#23457;&#26680;&#36890;&#36807;</text></g><!--link ??? to ???--><g id="link_&#24050;&#25903;&#20184;_&#36864;&#27454;&#20013;"><path d="M141.88,528.6975 C122.43,568.2675 103.27,614.7175 93.5,659.4775 C84.07,702.6975 86.9906,748.6973 90.4306,778.4373 " fill="none" id="&#24050;&#25903;&#20184;-to-&#36864;&#27454;&#20013;" style="stroke:#000000;stroke-width:0.8;"/><polygon fill="#000000" points="91.12,784.3975,94.0594,774.9975,90.5455,779.4307,86.1124,775.9168,91.12,784.3975" style="stroke:#000000;stroke-width:0.8;"/><text fill="#000000" font-family="Microsoft YaHei" font-size="13" lengthAdjust="spacing" textLength="78" x="94.5" y="689.7329">&#29992;&#25143;&#30003;&#35831;&#36864;&#27454;</text></g><!--link ??? to ???--><g id="link_&#24453;&#21457;&#36135;_&#24050;&#21457;&#36135;"><path d="M226.77,709.7075 C229.26,757.1175 234.4271,855.6657 236.9071,903.1557 " fill="none" id="&#24453;&#21457;&#36135;-to-&#24050;&#21457;&#36135;" style="stroke:#000000;stroke-width:0.8;"/><polygon fill="#000000" points="237.22,909.1475,240.7452,899.9512,236.9592,904.1543,232.7561,900.3684,237.22,909.1475" style="stroke:#000000;stroke-width:0.8;"/><text fill="#000000" font-family="Microsoft YaHei" font-size="13" lengthAdjust="spacing" textLength="104" x="233.5" y="814.7329">&#20986;&#24211;&#24182;&#24405;&#20837;&#36816;&#21333;&#21495;</text></g><!--link ??? to ???--><g id="link_&#24453;&#21457;&#36135;_&#36864;&#27454;&#20013;"><path d="M195.7,698.4575 C177.38,707.4875 154.28,720.8775 137.5,737.4775 C123.87,750.9575 115.5136,764.2463 108.0136,779.0363 " fill="none" id="&#24453;&#21457;&#36135;-to-&#36864;&#27454;&#20013;" style="stroke:#000000;stroke-width:0.8;"/><polygon fill="#000000" points="105.3,784.3875,112.938,778.1697,107.5614,779.9281,105.8029,774.5515,105.3,784.3875" style="stroke:#000000;stroke-width:0.8;"/><text fill="#000000" font-family="Microsoft YaHei" font-size="13" lengthAdjust="spacing" textLength="65" x="138.5" y="752.2329">&#21457;&#36135;&#21069;&#21462;&#28040;</text></g><!--link ??? to ???--><g id="link_&#24050;&#21457;&#36135;_&#24050;&#23436;&#25104;"><path d="M239.48,959.7075 C241.39,1007.1175 245.3576,1105.6624 247.2776,1153.1524 " fill="none" id="&#24050;&#21457;&#36135;-to-&#24050;&#23436;&#25104;" style="stroke:#000000;stroke-width:0.8;"/><polygon fill="#000000" points="247.52,1159.1475,251.1532,1149.9933,247.318,1154.1516,243.1597,1150.3165,247.52,1159.1475" style="stroke:#000000;stroke-width:0.8;"/><text fill="#000000" font-family="Microsoft YaHei" font-size="13" lengthAdjust="spacing" textLength="78" x="244.5" y="1064.7329">&#29992;&#25143;&#30830;&#35748;&#25910;&#36135;</text></g><!--link ??? to ???--><g id="link_&#24050;&#21457;&#36135;_&#24050;&#23436;&#25104;"><path d="M268.24,955.9375 C291.19,973.6775 321.19,1001.6375 334.5,1034.4775 C342.85,1055.0775 342.28,1063.6575 334.5,1084.4775 C323.26,1114.5475 302.7759,1137.5095 282.6259,1155.6795 " fill="none" id="&#24050;&#21457;&#36135;-to-&#24050;&#23436;&#25104;-1" style="stroke:#000000;stroke-width:0.8;"/><polygon fill="#000000" points="278.17,1159.6975,287.5326,1156.6411,281.8833,1156.3492,282.1752,1150.6998,278.17,1159.6975" style="stroke:#000000;stroke-width:0.8;"/><text fill="#000000" font-family="Microsoft YaHei" font-size="13" lengthAdjust="spacing" textLength="104" x="341.5" y="1064.7329">&#36229;&#26102;&#33258;&#21160;&#30830;&#35748;&#25910;&#36135;</text></g><!--link ??? to ???--><g id="link_&#24050;&#21457;&#36135;_&#21806;&#21518;&#20013;"><path d="M209,941.8075 C184.71,948.6875 151.6,962.2475 134.5,987.4775 C125.34,1000.9975 123.6717,1013.4582 124.5517,1028.1682 " fill="none" id="&#24050;&#21457;&#36135;-to-&#21806;&#21518;&#20013;" style="stroke:#000000;stroke-width:0.8;"/><polygon fill="#000000" points="124.91,1034.1575,128.3654,1024.9347,124.6114,1029.1665,120.3797,1025.4125,124.91,1034.1575" style="stroke:#000000;stroke-width:0.8;"/><text fill="#000000" font-family="Microsoft YaHei" font-size="13" lengthAdjust="spacing" textLength="78" x="135.5" y="1002.2329">&#30003;&#35831;&#36864;&#36135;&#36864;&#27454;</text></g><!--link ??? to ???--><g id="link_&#21806;&#21518;&#20013;_&#24050;&#23436;&#25104;"><path d="M135.26,1084.6175 C140.34,1099.4375 148.5,1118.0775 160.5,1131.4775 C176.48,1149.3275 194.6445,1160.2667 213.3845,1169.0267 " fill="none" id="&#21806;&#21518;&#20013;-to-&#24050;&#23436;&#25104;" style="stroke:#000000;stroke-width:0.8;"/><polygon fill="#000000" points="218.82,1171.5675,212.3607,1164.1327,214.2904,1169.4502,208.9729,1171.38,218.82,1171.5675" style="stroke:#000000;stroke-width:0.8;"/><text fill="#000000" font-family="Microsoft YaHei" font-size="13" lengthAdjust="spacing" textLength="52" x="161.5" y="1127.2329">&#21806;&#21518;&#23436;&#32467;</text></g><!--link ??? to ???--><g id="link_&#21806;&#21518;&#20013;_&#24050;&#36864;&#27454;"><path d="M98.74,1067.3875 C75.65,1074.4875 45.19,1088.0475 30.5,1112.4775 C22.15,1126.3675 22.4219,1138.815 26.1419,1153.345 " fill="none" id="&#21806;&#21518;&#20013;-to-&#24050;&#36864;&#27454;" style="stroke:#000000;stroke-width:0.8;"/><polygon fill="#000000" points="27.63,1159.1575,29.2728,1149.4467,26.3899,1154.3138,21.5228,1151.4308,27.63,1159.1575" style="stroke:#000000;stroke-width:0.8;"/><text fill="#000000" font-family="Microsoft YaHei" font-size="13" lengthAdjust="spacing" textLength="78" x="31.5" y="1127.2329">&#36864;&#36135;&#36864;&#27454;&#25104;&#21151;</text></g><!--link ??? to ???--><g id="link_&#36864;&#27454;&#20013;_&#24050;&#36864;&#27454;"><path d="M85.77,834.7075 C68.03,885.4175 28.26,1006.7875 14.5,1112.4775 C13.41,1120.8475 12.82,1123.1975 14.5,1131.4775 C16.41,1140.8875 17.6378,1145.2371 21.4478,1153.7871 " fill="none" id="&#36864;&#27454;&#20013;-to-&#24050;&#36864;&#27454;" style="stroke:#000000;stroke-width:0.8;"/><polygon fill="#000000" points="23.89,1159.2675,23.8804,1149.4187,21.8548,1154.7005,16.5731,1152.6749,23.89,1159.2675" style="stroke:#000000;stroke-width:0.8;"/><text fill="#000000" font-family="Microsoft YaHei" font-size="13" lengthAdjust="spacing" textLength="52" x="40.5" y="1002.2329">&#36864;&#27454;&#25104;&#21151;</text></g><!--link ??? to ???--><g id="link_&#36864;&#27454;&#20013;_&#24050;&#21457;&#36135;"><path d="M99.93,834.7275 C104.37,849.7675 112,868.6175 124.5,881.4775 C147.55,905.1875 177.6587,917.3919 202.9987,924.7619 " fill="none" id="&#36864;&#27454;&#20013;-to-&#24050;&#21457;&#36135;" style="stroke:#000000;stroke-width:0.8;"/><polygon fill="#000000" points="208.76,926.4375,201.2352,920.0832,203.9589,925.0412,199.001,927.7649,208.76,926.4375" style="stroke:#000000;stroke-width:0.8;"/><text fill="#000000" font-family="Microsoft YaHei" font-size="13" lengthAdjust="spacing" textLength="78" x="125.5" y="877.2329">&#21830;&#23478;&#39539;&#22238;&#36864;&#27454;</text></g><!--link ??? to *end*--><g id="link_&#24050;&#20851;&#38381;_*end*"><path d="M592.5,450.1175 C592.5,495.7175 592.5,597.6475 592.5,683.4775 C592.5,683.4775 592.5,683.4775 592.5,1185.4775 C592.5,1256.0575 324.4329,1272.8464 265.5529,1275.7064 " fill="none" id="&#24050;&#20851;&#38381;-to-*end*" style="stroke:#000000;stroke-width:0.8;"/><polygon fill="#000000" points="259.56,1275.9975,268.7435,1279.5562,264.5541,1275.755,268.3553,1271.5656,259.56,1275.9975" style="stroke:#000000;stroke-width:0.8;"/></g><!--link ??? to *end*--><g id="link_&#24050;&#23436;&#25104;_*end*"><path d="M248.5,1209.8675 C248.5,1228.3975 248.5,1246.9275 248.5,1260.4575 " fill="none" id="&#24050;&#23436;&#25104;-to-*end*" style="stroke:#000000;stroke-width:0.8;"/><polygon fill="#000000" points="248.5,1266.4575,252.5,1257.4575,248.5,1261.4575,244.5,1257.4575,248.5,1266.4575" style="stroke:#000000;stroke-width:0.8;"/></g><!--link ??? to *end*--><g id="link_&#24050;&#36864;&#27454;_*end*"><path d="M66.42,1198.3275 C114.82,1219.0975 202.417,1256.6897 232.987,1269.8197 " fill="none" id="&#24050;&#36864;&#27454;-to-*end*" style="stroke:#000000;stroke-width:0.8;"/><polygon fill="#000000" points="238.5,1272.1875,231.8091,1264.9604,233.9058,1270.2143,228.6519,1272.3111,238.5,1272.1875" style="stroke:#000000;stroke-width:0.8;"/></g><!--SRC=[hLLRJnj757xVNt6KFkGYcT0sKQEeZUIGqYA591Bm44Lv6DQ3MR1ttDan8QqgEOaCDWe1n98Be09jer8KDXMqnh49_9V8ivUd_8NENhpU0BLNILTQQVUSxtppdM_Fpfo6Rpxzaau3c2zgJg7Sg2r0iWyi_H- -DCLNDwtQ8TSD- -y_hDswLL-3Cyc-nBSzjyu2l2le04Fzru6l79YrUVFfTADUSOcStvwOw_llzvSRrPVYmSDyqJK9vo6VpIHI2afJbDMw24q3dtje5nur2qfEVS5wyPRFBjdbdVVxPKzLTSTSMnHaOsW2GM8CKSXbaCe4LPVxaf174TKmWw71tiGbI31j8WrVcwklV3rN1CV_uOyshgWv97H3bgX47gKaYu7HF8vaXf4ydgOahwPwI8PG-ApNkoA851v1-Gph9IgxWGJ1gNv5faGZ8mnke- -nSkfax83o8uRFlumajL6K8lSKDGqZAAD5HSWPf6b9ngWod6UuJoQgLzqTWGGIgOhf1t6LfB26St3XOXICr74tU34Qp8bEKHeFiFiP31JB3AdfJ5I5Xd_8OrN6_LZJ132PKT8go5Xbc4PGIPaHUhMZQpwCq1Ic0QJRkoAGMuWoHLPoOZ0wyqN1RLbl48OxqtcejZm3WHlV2PvSPy8FuR6OhvB9-Bmkk8ERtkVjpDZZ3bjdsCtXCJ4ZCGGo5CVm8GtBI8iZZsHpHCLnPaBCc3AXiFlnaTSK9BQ2L9pvICNGUWqnD1ohgoIbvDv_VJelEJYgoEEg-FMWk-jIT0r_Ind4awpJG5rNHiIjnXpi41rx1ZqN4LE8-b4riLITO1HJcDYnn8455n9V0TZ6h-AmiMOgPk6124hIdNDt8P6u0loWQEgl6_NdS1buQONNQpxKBCtpcJLnaZdw0suiyzeYttukIIsuLxot4nRx3tuPN_d5_kiHt76s7blR1qvXsJwSXaPL1_xceRLTDjStHCOFtprEoOkxphDjGMdfcsPfZyyzDIkbDZ2xKZIVLSpLhI1_HkWLWKQzpcSspWhDeSgWOJwt88vvjs5ny1iLQyEmZT-3u7cmfxVup2OtDiprgg_n28DJA9Yl3XhLbaHBtxLVx_bnpwE0hAaqN6-wvXhvfiBVBl7YI_jmNZZDv_QEb4GNyCEyF1lO8BNuckp6O-5wIulNZQbN1AGDs3VDxxLTYMxm-IVDNeCkHJBiDSmVNS3FY5UhldWSvjSBM9JE7nv9QlL_0hg5EmOxybsTFtV588PAmubnqMByfPRQI2HOgXcHD7UdZWpwJn90vD_XfIdn2KKiV0x5-6_kNpNb56TzRGtX1KIopML-_XS0]--></g></svg>