<svg xmlns="http://www.w3.org/2000/svg" xmlns:xlink="http://www.w3.org/1999/xlink" contentStyleType="text/css" height="1011px" preserveAspectRatio="none" style="width:1448px;height:1011px;background:#FFFFFF;" version="1.1" viewBox="0 0 1448 1011" width="1448px" zoomAndPan="magnify"><title>&#22270; 4-11  &#26234;&#33021;&#23458;&#26381;&#21672;&#35810;&#26102;&#24207;&#22270;</title><defs/><g><text fill="#000000" font-family="Microsoft YaHei" font-size="14" font-weight="bold" lengthAdjust="spacing" textLength="184.5225" x="633.6069" y="29.8135">&#22270; 4-11  &#26234;&#33021;&#23458;&#26381;&#21672;&#35810;&#26102;&#24207;&#22270;</text><rect fill="#FFFFFF" height="733.9429" style="stroke:#000000;stroke-width:1;" width="10" x="480.0386" y="185.9507"/><rect fill="#FFFFFF" height="289.7349" style="stroke:#000000;stroke-width:1.5;" width="822.6978" x="429.0386" y="325.5815"/><rect fill="#FFFFFF" height="143.7886" style="stroke:none;stroke-width:1;" width="822.6978" x="429.0386" y="471.5278"/><rect fill="#FFFFFF" height="83.6309" style="stroke:#000000;stroke-width:1.5;" width="1432.7363" x="10" y="829.2627"/><line style="stroke:#000000;stroke-width:0.5;stroke-dasharray:5.0,5.0;" x1="42" x2="42" y1="121.6353" y2="929.8936"/><line style="stroke:#000000;stroke-width:0.5;stroke-dasharray:5.0,5.0;" x1="313.0925" x2="313.0925" y1="121.6353" y2="929.8936"/><line style="stroke:#000000;stroke-width:0.5;stroke-dasharray:5.0,5.0;" x1="485.0386" x2="485.0386" y1="121.6353" y2="929.8936"/><line style="stroke:#000000;stroke-width:0.5;stroke-dasharray:5.0,5.0;" x1="661.209" x2="661.209" y1="121.6353" y2="929.8936"/><line style="stroke:#000000;stroke-width:0.5;stroke-dasharray:5.0,5.0;" x1="743.209" x2="743.209" y1="121.6353" y2="929.8936"/><line style="stroke:#000000;stroke-width:0.5;stroke-dasharray:5.0,5.0;" x1="839.209" x2="839.209" y1="121.6353" y2="929.8936"/><line style="stroke:#000000;stroke-width:0.5;stroke-dasharray:5.0,5.0;" x1="953.709" x2="953.709" y1="121.6353" y2="929.8936"/><line style="stroke:#000000;stroke-width:0.5;stroke-dasharray:5.0,5.0;" x1="1029.709" x2="1029.709" y1="121.6353" y2="929.8936"/><line style="stroke:#000000;stroke-width:0.5;stroke-dasharray:5.0,5.0;" x1="1208.7363" x2="1208.7363" y1="121.6353" y2="929.8936"/><line style="stroke:#000000;stroke-width:0.5;stroke-dasharray:5.0,5.0;" x1="1290.7363" x2="1290.7363" y1="121.6353" y2="929.8936"/><line style="stroke:#000000;stroke-width:0.5;stroke-dasharray:5.0,5.0;" x1="1386.7363" x2="1386.7363" y1="121.6353" y2="929.8936"/><text fill="#000000" font-family="Microsoft YaHei" font-size="13" lengthAdjust="spacing" textLength="39" x="20" y="118.2329">&#28040;&#36153;&#32773;</text><ellipse cx="42.5" cy="52.9775" fill="#FFFFFF" rx="8" ry="8" style="stroke:#000000;stroke-width:0.5;"/><path d="M42.5,60.9775 L42.5,87.9775 M29.5,68.9775 L55.5,68.9775 M42.5,87.9775 L29.5,102.9775 M42.5,87.9775 L55.5,102.9775 " fill="none" style="stroke:#000000;stroke-width:0.5;"/><text fill="#000000" font-family="Microsoft YaHei" font-size="13" lengthAdjust="spacing" textLength="39" x="20" y="942.6489">&#28040;&#36153;&#32773;</text><ellipse cx="42.5" cy="954.5513" fill="#FFFFFF" rx="8" ry="8" style="stroke:#000000;stroke-width:0.5;"/><path d="M42.5,962.5513 L42.5,989.5513 M29.5,970.5513 L55.5,970.5513 M42.5,989.5513 L29.5,1004.5513 M42.5,989.5513 L55.5,1004.5513 " fill="none" style="stroke:#000000;stroke-width:0.5;"/><rect fill="#FFFFFF" height="31.1577" style="stroke:#000000;stroke-width:0.5;" width="82.8149" x="272.0925" y="89.4775"/><text fill="#000000" font-family="Microsoft YaHei" font-size="13" lengthAdjust="spacing" textLength="68.8149" x="279.0925" y="110.2329">AI &#23458;&#26381;&#28014;&#31383;</text><rect fill="#FFFFFF" height="31.1577" style="stroke:#000000;stroke-width:0.5;" width="82.8149" x="272.0925" y="928.8936"/><text fill="#000000" font-family="Microsoft YaHei" font-size="13" lengthAdjust="spacing" textLength="68.8149" x="279.0925" y="949.6489">AI &#23458;&#26381;&#28014;&#31383;</text><rect fill="#FFFFFF" height="31.1577" style="stroke:#000000;stroke-width:0.5;" width="92" x="439.0386" y="89.4775"/><text fill="#000000" font-family="Microsoft YaHei" font-size="13" lengthAdjust="spacing" textLength="78" x="446.0386" y="110.2329">&#26234;&#33021;&#23458;&#26381;&#26381;&#21153;</text><rect fill="#FFFFFF" height="31.1577" style="stroke:#000000;stroke-width:0.5;" width="92" x="439.0386" y="928.8936"/><text fill="#000000" font-family="Microsoft YaHei" font-size="13" lengthAdjust="spacing" textLength="78" x="446.0386" y="949.6489">&#26234;&#33021;&#23458;&#26381;&#26381;&#21153;</text><rect fill="#FFFFFF" height="31.1577" style="stroke:#000000;stroke-width:0.5;" width="66" x="628.209" y="89.4775"/><text fill="#000000" font-family="Microsoft YaHei" font-size="13" lengthAdjust="spacing" textLength="52" x="635.209" y="110.2329">&#20250;&#35805;&#35760;&#24518;</text><rect fill="#FFFFFF" height="31.1577" style="stroke:#000000;stroke-width:0.5;" width="66" x="628.209" y="928.8936"/><text fill="#000000" font-family="Microsoft YaHei" font-size="13" lengthAdjust="spacing" textLength="52" x="635.209" y="949.6489">&#20250;&#35805;&#35760;&#24518;</text><rect fill="#FFFFFF" height="31.1577" style="stroke:#000000;stroke-width:0.5;" width="79" x="704.209" y="89.4775"/><text fill="#000000" font-family="Microsoft YaHei" font-size="13" lengthAdjust="spacing" textLength="65" x="711.209" y="110.2329">&#24847;&#22270;&#35782;&#21035;&#22120;</text><rect fill="#FFFFFF" height="31.1577" style="stroke:#000000;stroke-width:0.5;" width="79" x="704.209" y="928.8936"/><text fill="#000000" font-family="Microsoft YaHei" font-size="13" lengthAdjust="spacing" textLength="65" x="711.209" y="949.6489">&#24847;&#22270;&#35782;&#21035;&#22120;</text><rect fill="#FFFFFF" height="31.1577" style="stroke:#000000;stroke-width:0.5;" width="92" x="793.209" y="89.4775"/><text fill="#000000" font-family="Microsoft YaHei" font-size="13" lengthAdjust="spacing" textLength="78" x="800.209" y="110.2329">&#21521;&#37327;&#26816;&#32034;&#26381;&#21153;</text><rect fill="#FFFFFF" height="31.1577" style="stroke:#000000;stroke-width:0.5;" width="92" x="793.209" y="928.8936"/><text fill="#000000" font-family="Microsoft YaHei" font-size="13" lengthAdjust="spacing" textLength="78" x="800.209" y="949.6489">&#21521;&#37327;&#26816;&#32034;&#26381;&#21153;</text><rect fill="#FFFFFF" height="31.1577" style="stroke:#000000;stroke-width:0.5;" width="53" x="927.709" y="89.4775"/><text fill="#000000" font-family="Microsoft YaHei" font-size="13" lengthAdjust="spacing" textLength="39" x="934.709" y="110.2329">&#30693;&#35782;&#24211;</text><rect fill="#FFFFFF" height="31.1577" style="stroke:#000000;stroke-width:0.5;" width="53" x="927.709" y="928.8936"/><text fill="#000000" font-family="Microsoft YaHei" font-size="13" lengthAdjust="spacing" textLength="39" x="934.709" y="949.6489">&#30693;&#35782;&#24211;</text><rect fill="#FFFFFF" height="31.1577" style="stroke:#000000;stroke-width:0.5;" width="79" x="990.709" y="89.4775"/><text fill="#000000" font-family="Microsoft YaHei" font-size="13" lengthAdjust="spacing" textLength="65" x="997.709" y="110.2329">&#24037;&#20855;&#27880;&#20876;&#34920;</text><rect fill="#FFFFFF" height="31.1577" style="stroke:#000000;stroke-width:0.5;" width="79" x="990.709" y="928.8936"/><text fill="#000000" font-family="Microsoft YaHei" font-size="13" lengthAdjust="spacing" textLength="65" x="997.709" y="949.6489">&#24037;&#20855;&#27880;&#20876;&#34920;</text><rect fill="#FFFFFF" height="31.1577" style="stroke:#000000;stroke-width:0.5;" width="66" x="1175.7363" y="89.4775"/><text fill="#000000" font-family="Microsoft YaHei" font-size="13" lengthAdjust="spacing" textLength="52" x="1182.7363" y="110.2329">&#35746;&#21333;&#26381;&#21153;</text><rect fill="#FFFFFF" height="31.1577" style="stroke:#000000;stroke-width:0.5;" width="66" x="1175.7363" y="928.8936"/><text fill="#000000" font-family="Microsoft YaHei" font-size="13" lengthAdjust="spacing" textLength="52" x="1182.7363" y="949.6489">&#35746;&#21333;&#26381;&#21153;</text><rect fill="#FFFFFF" height="31.1577" style="stroke:#000000;stroke-width:0.5;" width="79" x="1251.7363" y="89.4775"/><text fill="#000000" font-family="Microsoft YaHei" font-size="13" lengthAdjust="spacing" textLength="65" x="1258.7363" y="110.2329">&#22823;&#27169;&#22411;&#32593;&#20851;</text><rect fill="#FFFFFF" height="31.1577" style="stroke:#000000;stroke-width:0.5;" width="79" x="1251.7363" y="928.8936"/><text fill="#000000" font-family="Microsoft YaHei" font-size="13" lengthAdjust="spacing" textLength="65" x="1258.7363" y="949.6489">&#22823;&#27169;&#22411;&#32593;&#20851;</text><rect fill="#FFFFFF" height="31.1577" style="stroke:#000000;stroke-width:0.5;" width="92" x="1340.7363" y="89.4775"/><text fill="#000000" font-family="Microsoft YaHei" font-size="13" lengthAdjust="spacing" textLength="78" x="1347.7363" y="110.2329">&#20154;&#24037;&#23458;&#26381;&#22352;&#24109;</text><rect fill="#FFFFFF" height="31.1577" style="stroke:#000000;stroke-width:0.5;" width="92" x="1340.7363" y="928.8936"/><text fill="#000000" font-family="Microsoft YaHei" font-size="13" lengthAdjust="spacing" textLength="78" x="1347.7363" y="949.6489">&#20154;&#24037;&#23458;&#26381;&#22352;&#24109;</text><rect fill="#FFFFFF" height="733.9429" style="stroke:#000000;stroke-width:1;" width="10" x="480.0386" y="185.9507"/><polygon fill="#000000" points="301.5,150.793,311.5,154.793,301.5,158.793,305.5,154.793" style="stroke:#000000;stroke-width:1;"/><line style="stroke:#000000;stroke-width:0.8;" x1="42.5" x2="307.5" y1="154.793" y2="154.793"/><text fill="#000000" font-family="Microsoft YaHei" font-size="13" lengthAdjust="spacing" textLength="247" x="54.5" y="149.3906">&#36755;&#20837;&#38382;&#39064;&#12300;&#25105;&#19978;&#21608;&#20080;&#30340;&#19996;&#35199;&#24590;&#20040;&#36824;&#27809;&#21457;&#36135;&#12301;</text><polygon fill="#000000" points="468.0386,181.9507,478.0386,185.9507,468.0386,189.9507,472.0386,185.9507" style="stroke:#000000;stroke-width:1;"/><line style="stroke:#000000;stroke-width:0.8;" x1="313.5" x2="474.0386" y1="185.9507" y2="185.9507"/><text fill="#000000" font-family="Microsoft YaHei" font-size="13" lengthAdjust="spacing" textLength="147.5386" x="323" y="180.5483">ask(sessionId, question)</text><polygon fill="#000000" points="649.209,213.1084,659.209,217.1084,649.209,221.1084,653.209,217.1084" style="stroke:#000000;stroke-width:1;"/><line style="stroke:#000000;stroke-width:0.8;" x1="490.0386" x2="655.209" y1="217.1084" y2="217.1084"/><text fill="#000000" font-family="Microsoft YaHei" font-size="13" lengthAdjust="spacing" textLength="137.6934" x="506.7771" y="211.7061">loadHistory(sessionId)</text><polygon fill="#000000" points="501.0386,244.2661,491.0386,248.2661,501.0386,252.2661,497.0386,248.2661" style="stroke:#000000;stroke-width:1;"/><line style="stroke:#000000;stroke-width:0.8;stroke-dasharray:2.0,2.0;" x1="495.0386" x2="660.209" y1="248.2661" y2="248.2661"/><text fill="#000000" font-family="Microsoft YaHei" font-size="13" lengthAdjust="spacing" textLength="117" x="517.1238" y="242.8638">&#36817;&#26399;&#22810;&#36718;&#20250;&#35805;&#19978;&#19979;&#25991;</text><polygon fill="#000000" points="731.709,275.4238,741.709,279.4238,731.709,283.4238,735.709,279.4238" style="stroke:#000000;stroke-width:1;"/><line style="stroke:#000000;stroke-width:0.8;" x1="490.0386" x2="737.709" y1="279.4238" y2="279.4238"/><text fill="#000000" font-family="Microsoft YaHei" font-size="13" lengthAdjust="spacing" textLength="177.0806" x="528.3335" y="274.0215">recognize(question, context)</text><polygon fill="#000000" points="501.0386,306.5815,491.0386,310.5815,501.0386,314.5815,497.0386,310.5815" style="stroke:#000000;stroke-width:1;"/><line style="stroke:#000000;stroke-width:0.8;stroke-dasharray:2.0,2.0;" x1="495.0386" x2="742.709" y1="310.5815" y2="310.5815"/><text fill="#000000" font-family="Microsoft YaHei" font-size="13" lengthAdjust="spacing" textLength="210.793" x="511.4773" y="305.1792">intent = &#29289;&#27969;&#26597;&#35810;, slots = &#35746;&#21333;&#20449;&#24687;</text><path d="M429.0386,325.5815 L490.7773,325.5815 L490.7773,334.7393 L480.7773,344.7393 L429.0386,344.7393 L429.0386,325.5815 " fill="#FFFFFF" style="stroke:#000000;stroke-width:1.5;"/><rect fill="none" height="289.7349" style="stroke:#000000;stroke-width:1.5;" width="822.6978" x="429.0386" y="325.5815"/><text fill="#000000" font-family="Microsoft YaHei" font-size="13" font-weight="bold" lengthAdjust="spacing" textLength="16.7388" x="444.0386" y="340.3369">alt</text><text fill="#000000" font-family="Microsoft YaHei" font-size="13" font-weight="bold" lengthAdjust="spacing" textLength="114.1309" x="505.7773" y="341.3369">[&#24847;&#22270;&#20026;&#19994;&#21153;&#24037;&#20855;&#22411;]</text><polygon fill="#000000" points="1018.209,366.0547,1028.209,370.0547,1018.209,374.0547,1022.209,370.0547" style="stroke:#000000;stroke-width:1;"/><line style="stroke:#000000;stroke-width:0.8;" x1="490.0386" x2="1024.209" y1="370.0547" y2="370.0547"/><text fill="#000000" font-family="Microsoft YaHei" font-size="13" lengthAdjust="spacing" textLength="186.7544" x="666.7466" y="364.6523">invoke(OrderQueryTool, slots)</text><polygon fill="#000000" points="1196.7363,397.2124,1206.7363,401.2124,1196.7363,405.2124,1200.7363,401.2124" style="stroke:#000000;stroke-width:1;"/><line style="stroke:#000000;stroke-width:0.8;" x1="1030.209" x2="1202.7363" y1="401.2124" y2="401.2124"/><text fill="#000000" font-family="Microsoft YaHei" font-size="13" lengthAdjust="spacing" textLength="154.5273" x="1042.209" y="395.8101">queryOrder(userId, slots)</text><polygon fill="#000000" points="1041.209,428.3701,1031.209,432.3701,1041.209,436.3701,1037.209,432.3701" style="stroke:#000000;stroke-width:1;"/><line style="stroke:#000000;stroke-width:0.8;stroke-dasharray:2.0,2.0;" x1="1035.209" x2="1207.7363" y1="432.3701" y2="432.3701"/><text fill="#000000" font-family="Microsoft YaHei" font-size="13" lengthAdjust="spacing" textLength="91" x="1073.9727" y="426.9678">&#35746;&#21333;&#19982;&#29289;&#27969;&#35814;&#24773;</text><polygon fill="#000000" points="501.0386,459.5278,491.0386,463.5278,501.0386,467.5278,497.0386,463.5278" style="stroke:#000000;stroke-width:1;"/><line style="stroke:#000000;stroke-width:0.8;stroke-dasharray:2.0,2.0;" x1="495.0386" x2="1029.209" y1="463.5278" y2="463.5278"/><text fill="#000000" font-family="Microsoft YaHei" font-size="13" lengthAdjust="spacing" textLength="65.6348" x="727.3064" y="458.1255">ToolResult</text><line style="stroke:#000000;stroke-width:1;stroke-dasharray:2.0,2.0;" x1="429.0386" x2="1251.7363" y1="472.5278" y2="472.5278"/><text fill="#000000" font-family="Microsoft YaHei" font-size="13" font-weight="bold" lengthAdjust="spacing" textLength="114.1309" x="434.0386" y="486.2832">[&#24847;&#22270;&#20026;&#30693;&#35782;&#21672;&#35810;&#22411;]</text><polygon fill="#000000" points="827.209,509.8433,837.209,513.8433,827.209,517.8433,831.209,513.8433" style="stroke:#000000;stroke-width:1;"/><line style="stroke:#000000;stroke-width:0.8;" x1="490.0386" x2="833.209" y1="513.8433" y2="513.8433"/><text fill="#000000" font-family="Microsoft YaHei" font-size="13" lengthAdjust="spacing" textLength="211.3896" x="558.929" y="508.4409">retrieve(rewrittenQuery, topK = 5)</text><polygon fill="#000000" points="942.209,541.001,952.209,545.001,942.209,549.001,946.209,545.001" style="stroke:#000000;stroke-width:1;"/><line style="stroke:#000000;stroke-width:0.8;" x1="839.209" x2="948.209" y1="545.001" y2="545.001"/><text fill="#000000" font-family="Microsoft YaHei" font-size="13" lengthAdjust="spacing" textLength="91" x="851.209" y="539.5986">&#21521;&#37327;&#30456;&#20284;&#24230;&#26816;&#32034;</text><polygon fill="#000000" points="850.209,572.1587,840.209,576.1587,850.209,580.1587,846.209,576.1587" style="stroke:#000000;stroke-width:1;"/><line style="stroke:#000000;stroke-width:0.8;stroke-dasharray:2.0,2.0;" x1="844.209" x2="953.209" y1="576.1587" y2="576.1587"/><text fill="#000000" font-family="Microsoft YaHei" font-size="13" lengthAdjust="spacing" textLength="78" x="857.709" y="570.7563">&#20505;&#36873;&#30693;&#35782;&#29255;&#27573;</text><polygon fill="#000000" points="501.0386,603.3164,491.0386,607.3164,501.0386,611.3164,497.0386,607.3164" style="stroke:#000000;stroke-width:1;"/><line style="stroke:#000000;stroke-width:0.8;stroke-dasharray:2.0,2.0;" x1="495.0386" x2="838.209" y1="607.3164" y2="607.3164"/><text fill="#000000" font-family="Microsoft YaHei" font-size="13" lengthAdjust="spacing" textLength="104" x="612.6238" y="601.9141">&#37325;&#25490;&#21518;&#30340;&#30693;&#35782;&#29255;&#27573;</text><polygon fill="#000000" points="1279.2363,641.4741,1289.2363,645.4741,1279.2363,649.4741,1283.2363,645.4741" style="stroke:#000000;stroke-width:1;"/><line style="stroke:#000000;stroke-width:0.8;" x1="490.0386" x2="1285.2363" y1="645.4741" y2="645.4741"/><text fill="#000000" font-family="Microsoft YaHei" font-size="13" lengthAdjust="spacing" textLength="308.2422" x="736.5164" y="640.0718">chat(&#31995;&#32479;&#25552;&#31034; + &#30693;&#35782;&#29255;&#27573; + &#24037;&#20855;&#32467;&#26524; + &#20250;&#35805;&#19978;&#19979;&#25991;)</text><polygon fill="#000000" points="501.0386,672.6318,491.0386,676.6318,501.0386,680.6318,497.0386,676.6318" style="stroke:#000000;stroke-width:1;"/><line style="stroke:#000000;stroke-width:0.8;stroke-dasharray:2.0,2.0;" x1="495.0386" x2="1290.2363" y1="676.6318" y2="676.6318"/><text fill="#000000" font-family="Microsoft YaHei" font-size="13" lengthAdjust="spacing" textLength="78" x="851.6375" y="671.2295">&#27969;&#24335;&#29983;&#25104;&#25991;&#26412;</text><line style="stroke:#000000;stroke-width:0.8;" x1="490.0386" x2="532.0386" y1="707.7896" y2="707.7896"/><line style="stroke:#000000;stroke-width:0.8;" x1="532.0386" x2="532.0386" y1="707.7896" y2="720.7896"/><line style="stroke:#000000;stroke-width:0.8;" x1="491.0386" x2="532.0386" y1="720.7896" y2="720.7896"/><polygon fill="#000000" points="501.0386,716.7896,491.0386,720.7896,501.0386,724.7896,497.0386,720.7896" style="stroke:#000000;stroke-width:1;"/><text fill="#000000" font-family="Microsoft YaHei" font-size="13" lengthAdjust="spacing" textLength="117" x="497.0386" y="702.3872">&#23433;&#20840;&#25252;&#26639;&#19982;&#21512;&#35268;&#36807;&#28388;</text><polygon fill="#000000" points="649.209,747.9473,659.209,751.9473,649.209,755.9473,653.209,751.9473" style="stroke:#000000;stroke-width:1;"/><line style="stroke:#000000;stroke-width:0.8;" x1="490.0386" x2="655.209" y1="751.9473" y2="751.9473"/><text fill="#000000" font-family="Microsoft YaHei" font-size="13" lengthAdjust="spacing" textLength="147.1704" x="502.0386" y="746.5449">append(sessionId, Q, A)</text><polygon fill="#000000" points="324.5,779.105,314.5,783.105,324.5,787.105,320.5,783.105" style="stroke:#000000;stroke-width:1;"/><line style="stroke:#000000;stroke-width:0.8;stroke-dasharray:2.0,2.0;" x1="318.5" x2="479.0386" y1="783.105" y2="783.105"/><text fill="#000000" font-family="Microsoft YaHei" font-size="13" lengthAdjust="spacing" textLength="104" x="344.7693" y="777.7026">SSE &#27969;&#24335;&#25512;&#36865;&#31572;&#22797;</text><polygon fill="#000000" points="53.5,810.2627,43.5,814.2627,53.5,818.2627,49.5,814.2627" style="stroke:#000000;stroke-width:1;"/><line style="stroke:#000000;stroke-width:0.8;stroke-dasharray:2.0,2.0;" x1="47.5" x2="312.5" y1="814.2627" y2="814.2627"/><text fill="#000000" font-family="Microsoft YaHei" font-size="13" lengthAdjust="spacing" textLength="143" x="106.5" y="808.8604">&#28210;&#26579;&#31572;&#22797;&#19982;&#20851;&#32852;&#35746;&#21333;&#21345;&#29255;</text><path d="M10,829.2627 L77.585,829.2627 L77.585,838.4204 L67.585,848.4204 L10,848.4204 L10,829.2627 " fill="#FFFFFF" style="stroke:#000000;stroke-width:1.5;"/><rect fill="none" height="83.6309" style="stroke:#000000;stroke-width:1.5;" width="1432.7363" x="10" y="829.2627"/><text fill="#000000" font-family="Microsoft YaHei" font-size="13" font-weight="bold" lengthAdjust="spacing" textLength="22.585" x="25" y="844.0181">opt</text><text fill="#000000" font-family="Microsoft YaHei" font-size="13" font-weight="bold" lengthAdjust="spacing" textLength="238.875" x="92.585" y="845.0181">[&#32622;&#20449;&#24230;&#20302;&#20110;&#38408;&#20540; &#25110; &#29992;&#25143;&#20027;&#21160;&#35201;&#27714;&#36716;&#20154;&#24037;]</text><polygon fill="#000000" points="1374.7363,869.7358,1384.7363,873.7358,1374.7363,877.7358,1378.7363,873.7358" style="stroke:#000000;stroke-width:1;"/><line style="stroke:#000000;stroke-width:0.8;" x1="490.0386" x2="1380.7363" y1="873.7358" y2="873.7358"/><text fill="#000000" font-family="Microsoft YaHei" font-size="13" lengthAdjust="spacing" textLength="182.019" x="847.3779" y="868.3335">&#36716;&#20154;&#24037;(&#20250;&#35805;&#25688;&#35201; + &#29992;&#25143;&#19978;&#19979;&#25991;)</text><polygon fill="#000000" points="53.5,900.8936,43.5,904.8936,53.5,908.8936,49.5,904.8936" style="stroke:#000000;stroke-width:1;"/><line style="stroke:#000000;stroke-width:0.8;stroke-dasharray:2.0,2.0;" x1="47.5" x2="1385.7363" y1="904.8936" y2="904.8936"/><text fill="#000000" font-family="Microsoft YaHei" font-size="13" lengthAdjust="spacing" textLength="78" x="675.6182" y="899.4912">&#20154;&#24037;&#23458;&#26381;&#25509;&#20837;</text><!--SRC=[hLTTKnD957sVNz75FXXg2QkxMcLjhLO51ANaGmKUzh59cZ0IfkDC1sMVWWe4b4045H1543Ixgy4LqPW4yrzqkcVov5_OspD9c52kIUtkL575T9zxxfbxJt_a63hptn_b649YDLUApvgv50fq8Mjvdz-VvkjfArVaondxxGjhBs_bDv0lqENlQB_KZD2d-392WptTY3_wA7ABui6CcNydYKhFak9fuKjXpSpkm3yEviVM6-W751kB-4Cg3kjup6YbUXZnXPjs_5Ob857AfwpL0pv_tvvzywKmwwZAlX4RIq1s5OzZvB-ATHIDO8q1LQjyyGT7i6uGXWO7ElsdaPyPus7qYrX_wUev2np_HtsCKLMBOj2DngX6WoCw7IE8wJ7YcHd2mT6mJcDQg9r6g8w-wtGU3o94Xd4imZgfnden43Jrg46T6dIOeL_n1Q8sVHtRh_v6q8cVF9F620xHwweMHiCuOdX512FOC0ACwUfGZ96k8DMSwECUI5cYhX6zPboZ8MAGA3fvoWl6sgWSFEKTZCANuZ3fPnCHWdGIP5WBHxmg378jHhGWwI660S10H0rhA4WqHdGFAX1aL6-hMpKNHlKGqSkGuyxZWLp2EbE3QXICKP_F2_ucQozbf3wTW_ecJt-v6kU19rgVi1RU47CRlT4uhmJNgQRJtlgCxT9izM5zGrV18mq8PBYHWWyQ98YDHkJHiIZLI2EU08-fuogRQ1nvJiMm5OGQyKUe0QtdCCD33NrLGDVfzNzgdJCvCA86HpLOUkXuwsbl3dTB6I0tM3r3TQl3yASrQEmgkc4FEbN4JANQluffIDLN2iLK1ZiM75ZefF_42UVCisyTyCoMM9_dzzBsxfPu-8xd5W2XA5ZkEwX9l4lORp_OyQacX0qqg4GFjm_K14Ub6otsCzOV3nr8PqSjnfj4vfdRT63j_RKmix1cxpwsCwzvSTe1z7Jq726wBONPkzCyyITVJJkWtkuZYlXYgZIp89x5hRTRdcnNEWPgSTR6ZcJABJdJ5zkEiBpVuLFlnLwQJz-rDzrK0trztRKeExC5XxKdIz-HR-BRBqHwap-vOnsa-DIUW-dkFl9PPYudqxbDUBp8iwySNE1yH- -0eWmY_raeAVePsH-N-DHEwM6cjBNoENvN959cTewdqkQ7rzRQRJExRkyKHJnfVaZOnHNnPfClfE3UyZa-hq0uaBJt0masHdq6B0rmKLUe1O5J3EcePjbjwIuY-w8050AW0H0HeJXqGJN02nE7aSsAdFHNMErYIgnlyEqr-o3ZzX6acTaxS0cfa46Z00Y79GrhS2BxAfbR49pH39Paio8XLKeL1g4wPv0r-xlOdnIoNLijo8XGPi2eMtgpk2acTy6g4OPSTvZPd9bTWtwu7OJIAmYv2cJ_7E9nEafyVN89NOuHVMA0qaYPk1d03WpWVLB5DGbmeBwOGNHPiYeG0Fv3shAWRDBLQ-y-5xUcgdILhvAvhX03TY65mCNbK7JPZiuQz8e6tpfbWmiD6IS-dLpNLGQLSPIt84QZ5w4QfwGU2OM8YsqGuAu2wr7MB1Huxhcx7003a_ugAu-lmetNpMpDpeZCVeMb8hSqCo-Iz_XY4WnMWoDQgD9Oy3CWuHhAVEuTMImiMjivz3toHi2hsn4hloIUhCFh4PyqAvAecXbAo0iBrlA6ICYhDLneo-cSMPwPvLDfCRSjdYv0oVbYmdvnsoxEYFnsZNTnD0fAlOQ_t882pGwcigpw-plAsKGoNOfFMg-M-RQxPW0YJUlUmTrncMrgpvvSTllDvpVX-nI5HXcomFl5JQYsUP0qSydIIeB72qWa7i2lYRH8l3UpUJwNjfzFYhzksWSltMLVRRIptAMFAZC-jq0YjG8XiffbacgzK3cc8jExZuWar7h7RLE8UDRstm00]--></g></svg>